<svg width="194" height="39" viewBox="0 0 194 39" fill="none" xmlns="http://www.w3.org/2000/svg">
<path d="M0 18.4607L8.25995 10.2119V26.7073L0 18.4607Z" fill="#FFD000"/>
<path d="M17.7388 28.1445V36.1771L9.29834 27.7122V19.6795L17.7388 28.1445Z" fill="#FFD000"/>
<path d="M10.0269 8.44271L17.7632 0.730896V8.44271H10.0269Z" fill="#FFD000"/>
<path d="M9.29834 9.46979H17.7633V17.9125H9.29834V9.46979Z" fill="#FFD000"/>
<path d="M10.0269 18.9509H17.7632V26.6738L10.0269 18.9509Z" fill="#FFD000"/>
<path d="M36.0173 0L18.791 17.2285V0H36.0173Z" fill="#FFD000"/>
<path d="M18.7769 36.8946V19.6795L35.992 36.8946H18.7769Z" fill="#FFD000"/>
<path d="M45.8269 32.4471L45.0738 33.2114C44.7306 32.8549 44.256 32.6543 43.7614 32.6632C42.8857 32.6632 42.1771 33.374 42.1771 34.2497C42.1771 35.1254 42.8857 35.834 43.7614 35.834C44.2493 35.854 44.7239 35.6736 45.0738 35.3326L45.8269 36.0969C45.2966 36.674 44.5457 36.9949 43.7614 36.9748C43.0216 36.9971 42.3019 36.7208 41.7649 36.2105C41.2479 35.7092 40.9561 35.0207 40.9561 34.301C40.9561 33.579 41.2479 32.8905 41.7649 32.3892C42.3019 31.8767 43.0194 31.5959 43.7614 31.6138C44.5368 31.5826 45.2899 31.8856 45.8269 32.4471Z" fill="#0067B1"/>
<path d="M47.1404 34.2608C47.1181 33.541 47.4033 32.8481 47.9269 32.3556C49.0566 31.3195 50.7902 31.3195 51.9199 32.3556C52.4368 32.8548 52.7287 33.541 52.7287 34.2608C52.7287 34.9782 52.4368 35.6668 51.9199 36.1659C50.7902 37.1998 49.0566 37.1998 47.9269 36.1659C47.4033 35.6712 47.1181 34.9782 47.1404 34.2608ZM51.0865 35.4016C51.394 35.103 51.5656 34.6886 51.5544 34.2608C51.5589 33.8374 51.3896 33.4296 51.0888 33.1311C50.7902 32.8325 50.3802 32.6676 49.9568 32.6743C49.5312 32.6587 49.1168 32.8191 48.8138 33.1199C48.5129 33.4207 48.3481 33.8329 48.3614 34.2608C48.3481 34.6841 48.5085 35.0963 48.8048 35.4016C49.1057 35.7046 49.5201 35.8695 49.9457 35.8584C50.3757 35.8695 50.7902 35.6979 51.0865 35.3905V35.4016Z" fill="#0067B1"/>
<path d="M54.4971 36.7922V31.7275H55.7181V32.4583C56.0256 31.9057 56.6272 31.5804 57.2578 31.625C57.797 31.5915 58.3251 31.7988 58.6972 32.1909C59.0693 32.5809 59.2476 33.1179 59.1852 33.6549V35.2525C59.1852 35.6402 59.2543 35.7895 59.5284 35.7895H59.6999V36.8033C59.5261 36.8256 59.3501 36.8256 59.1741 36.8033C58.3652 36.8033 57.9664 36.3599 57.9664 35.482V33.8264C58.0043 33.5234 57.904 33.2204 57.6945 32.9998C57.4851 32.777 57.1865 32.6633 56.8812 32.6856C56.2507 32.6856 55.7404 33.1959 55.7404 33.8264V36.7476L54.4971 36.7922Z" fill="#0067B1"/>
<path d="M64.6399 32.8237H63.9893V31.6829H64.6399V29.7421H65.8609V31.6829H67.0018V32.8237H65.8609V35.1054C65.8609 35.6513 66.0548 35.8585 66.5094 35.8585C66.6542 35.8741 66.799 35.8741 66.9439 35.8585V36.9994C66.7322 37.0172 66.5183 37.0172 66.3044 36.9994C65.1635 36.9994 64.6399 36.429 64.6399 35.2748V32.8237Z" fill="#0067B1"/>
<path d="M68.3479 34.2608C68.3389 33.5366 68.6375 32.8458 69.1678 32.3556C70.2975 31.3195 72.0311 31.3195 73.1608 32.3556C73.6844 32.8503 73.9808 33.5388 73.9808 34.2608C73.9808 34.9805 73.6844 35.669 73.1608 36.1659C72.0311 37.1998 70.2975 37.1998 69.1678 36.1659C68.6375 35.6757 68.3389 34.9827 68.3479 34.2608ZM72.3051 35.4016C72.6104 35.1008 72.7775 34.6886 72.7619 34.2608C72.7775 33.8329 72.6126 33.4185 72.3051 33.1199C72.0043 32.8169 71.5921 32.652 71.1643 32.6631C70.7387 32.6475 70.3243 32.8124 70.0235 33.1199C69.7227 33.4207 69.5578 33.8329 69.5689 34.2608C69.56 34.6863 69.7249 35.0986 70.0235 35.4016C70.3243 35.7069 70.7387 35.874 71.1643 35.8584C71.5943 35.8651 72.0066 35.6957 72.3051 35.3905V35.4016Z" fill="#0067B1"/>
<path d="M79.7089 32.4582V29.7888H80.9411V35.2635C80.9411 35.698 81.0436 35.8584 81.3177 35.8584H81.5695V36.8277C81.3756 36.8923 81.1684 36.9191 80.9656 36.9079C80.7183 36.9213 80.4732 36.8656 80.2571 36.7475C80.0387 36.6138 79.8849 36.3954 79.8359 36.1437C79.4193 36.6896 78.753 36.9881 78.0667 36.9302C77.3715 36.9458 76.7008 36.6695 76.2196 36.1659C75.2458 35.0986 75.2458 33.4676 76.2196 32.4003C76.7031 31.9056 77.3738 31.6315 78.0667 31.6471C78.7263 31.5736 79.3658 31.89 79.7089 32.4582ZM79.3435 35.3326C79.9496 34.7198 79.9496 33.7327 79.3435 33.12C79.0405 32.8214 78.6282 32.661 78.2027 32.6743C77.7771 32.6565 77.3648 32.8169 77.0618 33.12C76.4869 33.7439 76.4869 34.7087 77.0618 35.3326C77.3648 35.6312 77.7793 35.7894 78.2027 35.7671C78.626 35.7827 79.0382 35.6267 79.3435 35.3326Z" fill="#0067B1"/>
<path d="M82.7905 34.2608C82.7771 33.5366 83.0757 32.8414 83.6104 32.3556C84.7401 31.3195 86.4737 31.3195 87.6034 32.3556C88.1226 32.8548 88.4145 33.541 88.4145 34.2608C88.4145 34.9782 88.1226 35.6668 87.6034 36.1659C86.4737 37.1998 84.7401 37.1998 83.6104 36.1659C83.0757 35.6779 82.7771 34.9849 82.7905 34.2608ZM86.7366 35.4016C87.0441 35.103 87.2157 34.6886 87.2045 34.2608C87.209 33.8307 87.0352 33.4185 86.7277 33.1177C86.4202 32.8191 86.0035 32.6587 85.5735 32.6743C85.1479 32.6587 84.7335 32.8191 84.4304 33.1199C84.1274 33.4207 83.9625 33.8329 83.9759 34.2608C83.9625 34.6841 84.1229 35.0963 84.4215 35.4016C84.7223 35.7046 85.1345 35.8695 85.5624 35.8584C85.9946 35.8717 86.4135 35.7024 86.7143 35.3905L86.7366 35.4016Z" fill="#0067B1"/>
<path d="M93.2168 29.7888H94.449V35.1276C94.449 35.6178 94.6094 35.8339 95.0551 35.8339C95.1798 35.854 95.3069 35.854 95.4316 35.8339V36.9748C95.2378 36.9971 95.0417 36.9971 94.8501 36.9748C94.3977 37.0372 93.9432 36.8834 93.6246 36.5603C93.3037 36.2372 93.1522 35.7827 93.2168 35.3326V29.7888Z" fill="#0067B1"/>
<path d="M96.6747 34.2608C96.6614 33.5366 96.96 32.8414 97.4947 32.3556C98.6244 31.3195 100.358 31.3195 101.488 32.3556C102.011 32.8503 102.308 33.5388 102.308 34.2608C102.308 34.9805 102.011 35.669 101.488 36.1659C100.358 37.1998 98.6244 37.1998 97.4947 36.1659C96.96 35.6779 96.6614 34.9849 96.6747 34.2608ZM100.621 35.4016C100.928 35.103 101.1 34.6886 101.089 34.2608C101.093 33.8374 100.924 33.4296 100.623 33.1311C100.325 32.8325 99.9146 32.6676 99.4912 32.6743C99.0656 32.6654 98.6534 32.8302 98.3504 33.1311C98.0518 33.4341 97.8913 33.8463 97.9069 34.2719C97.8936 34.6975 98.0585 35.1097 98.3615 35.4105C98.6623 35.7113 99.0768 35.874 99.5046 35.8584C99.9257 35.8628 100.329 35.6935 100.621 35.3905V35.4016Z" fill="#0067B1"/>
<path d="M112.248 38.7551H111.027V36.0523C110.701 36.6473 110.044 36.9837 109.371 36.8946C108.682 36.908 108.018 36.6361 107.535 36.1437C106.546 35.0831 106.546 33.4386 107.535 32.378C108.018 31.8856 108.682 31.6137 109.371 31.6249C110.042 31.5358 110.699 31.8655 111.027 32.4582V31.7274H112.248V38.7551ZM108.449 33.1869C107.871 33.813 107.871 34.7756 108.449 35.4017C108.749 35.7003 109.164 35.8585 109.589 35.834C110.002 35.8139 110.389 35.6334 110.672 35.3326C111.278 34.7199 111.278 33.7328 110.672 33.12C110.365 32.8259 109.955 32.6655 109.531 32.6744C109.119 32.6811 108.729 32.8526 108.449 33.1534V33.1869Z" fill="#0067B1"/>
<path d="M114.096 31.7274H115.317V34.6931C115.275 34.9917 115.368 35.2903 115.573 35.5108C115.776 35.7337 116.066 35.8518 116.366 35.8339C116.997 35.8339 117.507 35.3237 117.507 34.6931V31.7274H118.728V35.2524C118.728 35.6869 118.831 35.8339 119.105 35.8339H119.366V36.8166C119.172 36.879 118.967 36.9057 118.762 36.8946C118.497 36.9079 118.236 36.8389 118.009 36.7007C117.821 36.5759 117.688 36.3843 117.632 36.1659C117.287 36.6807 116.687 36.9659 116.07 36.9079C115.522 36.9525 114.983 36.7475 114.599 36.3531C114.218 35.9565 114.034 35.4106 114.096 34.8647V31.7274Z" fill="#0067B1"/>
<path d="M120.677 34.2609C120.646 33.5367 120.92 32.8326 121.43 32.3201C121.954 31.8277 122.651 31.5648 123.371 31.5915C124.057 31.5603 124.726 31.8277 125.207 32.3201C125.682 32.8036 125.942 33.4587 125.925 34.1339C125.925 34.2832 125.925 34.4325 125.925 34.5572H121.909C121.929 34.945 122.108 35.3059 122.404 35.5577C122.7 35.8073 123.088 35.9254 123.474 35.8808C123.997 35.8875 124.501 35.6758 124.864 35.2992L125.595 36.0056C125.033 36.6005 124.245 36.9281 123.427 36.908C122.703 36.937 121.994 36.683 121.453 36.1994C120.942 35.7025 120.668 35.0073 120.699 34.2943L120.677 34.2609ZM124.67 33.7128C124.672 33.4097 124.528 33.1245 124.282 32.9485C124.033 32.7234 123.705 32.6053 123.371 32.6165C123.012 32.6098 122.663 32.7212 122.377 32.9373C122.126 33.1223 121.961 33.403 121.921 33.7128H124.67Z" fill="#0067B1"/>
<path d="M130.945 32.8237H130.308V31.6829H130.945V29.7421H132.178V31.6829H133.318V32.8237H132.178V35.1054C132.178 35.6513 132.371 35.8585 132.817 35.8585C132.962 35.8764 133.107 35.8764 133.249 35.8585V36.9994C133.038 37.0194 132.824 37.0194 132.612 36.9994C132.144 37.0596 131.674 36.8947 131.346 36.5537C131.019 36.2151 130.87 35.7405 130.945 35.2748V32.8237Z" fill="#0067B1"/>
<path d="M134.631 34.2609C134.6 33.5367 134.874 32.8326 135.384 32.3201C135.91 31.8277 136.614 31.5648 137.334 31.5915C138.02 31.5648 138.682 31.8299 139.161 32.3201C139.636 32.8037 139.894 33.4588 139.879 34.1339C139.879 34.2832 139.879 34.4325 139.879 34.5573H135.886C135.904 34.9427 136.08 35.3059 136.374 35.5577C136.668 35.8073 137.053 35.9254 137.439 35.8808C137.962 35.8897 138.466 35.678 138.829 35.2993L139.56 36.0056C138.999 36.6027 138.21 36.9303 137.392 36.908C136.668 36.937 135.959 36.683 135.418 36.1994C134.908 35.7026 134.634 35.0074 134.665 34.2943L134.631 34.2609ZM138.635 33.7128C138.633 33.4075 138.484 33.1245 138.237 32.9485C137.991 32.7257 137.666 32.6054 137.334 32.6165C136.978 32.6054 136.626 32.719 136.343 32.9374C136.08 33.1134 135.908 33.3986 135.875 33.7128H138.635Z" fill="#0067B1"/>
<path d="M144.795 36.7921V31.7274H146.039V32.4583C146.324 31.9369 146.877 31.6182 147.471 31.6294C148.064 31.6427 148.603 31.9836 148.869 32.514C149.189 31.9101 149.842 31.5581 150.522 31.6249C151.663 31.6249 152.291 32.4003 152.291 33.6548V35.2524C152.291 35.6401 152.358 35.7894 152.632 35.7894H152.804V36.8033C152.63 36.8278 152.454 36.8278 152.28 36.8033C151.469 36.8033 151.07 36.3598 151.07 35.4819V33.8264C151.07 33.1312 150.738 32.6855 150.168 32.6855C149.885 32.7034 149.619 32.8348 149.435 33.0487C149.247 33.2626 149.154 33.5434 149.176 33.8264V36.7476H147.955V33.7818C147.955 33.0844 147.625 32.641 147.03 32.641C146.747 32.6588 146.482 32.788 146.297 33.0019C146.11 33.2181 146.016 33.4966 146.039 33.7818V36.7008L144.795 36.7921Z" fill="#0067B1"/>
<path d="M154.127 34.2609C154.096 33.5367 154.37 32.8326 154.88 32.3201C155.406 31.8277 156.11 31.5648 156.832 31.5915C157.516 31.5648 158.178 31.8299 158.657 32.3201C159.131 32.8037 159.392 33.4588 159.374 34.1339C159.374 34.2832 159.374 34.4325 159.374 34.5573H155.37C155.388 34.9427 155.564 35.3059 155.858 35.5577C156.152 35.8073 156.538 35.9254 156.921 35.8808C157.447 35.8897 157.951 35.678 158.314 35.2993L159.056 36.0056C158.49 36.6005 157.699 36.9281 156.877 36.908C156.152 36.9348 155.444 36.6807 154.902 36.1994C154.392 35.7026 154.118 35.0074 154.149 34.2943L154.127 34.2609ZM158.131 33.7128C158.129 33.412 157.984 33.129 157.743 32.9485C157.492 32.7257 157.166 32.6076 156.832 32.6165C156.473 32.6054 156.121 32.719 155.838 32.9374C155.575 33.1134 155.404 33.3986 155.37 33.7128H158.131Z" fill="#0067B1"/>
<path d="M161.063 36.7922V31.7275H162.285V32.4806C162.579 31.9169 163.178 31.5804 163.813 31.625C163.938 31.6116 164.065 31.6116 164.19 31.625V32.7658C164.018 32.748 163.847 32.748 163.677 32.7658C163.305 32.7279 162.935 32.8549 162.668 33.1156C162.398 33.3741 162.258 33.7395 162.285 34.1116V36.781L161.063 36.7922Z" fill="#0067B1"/>
<path d="M165.364 34.2609C165.333 33.5367 165.607 32.8326 166.117 32.3201C166.645 31.8277 167.347 31.5648 168.069 31.5915C168.753 31.5648 169.417 31.8299 169.894 32.3201C170.369 32.8037 170.629 33.4588 170.611 34.1339C170.611 34.2832 170.611 34.4325 170.611 34.5573H166.574C166.589 34.9427 166.768 35.3059 167.062 35.5577C167.356 35.8073 167.741 35.9254 168.125 35.8808C168.651 35.8897 169.154 35.678 169.517 35.2993L170.248 36.0056C169.687 36.6027 168.898 36.9303 168.08 36.908C167.354 36.937 166.647 36.683 166.106 36.1994C165.593 35.7026 165.319 35.0074 165.353 34.2943L165.364 34.2609ZM169.368 33.7128C169.366 33.4075 169.219 33.1245 168.969 32.9485C168.724 32.7257 168.401 32.6054 168.069 32.6165C167.71 32.6054 167.36 32.719 167.075 32.9374C166.812 33.1134 166.641 33.3986 166.607 33.7128H169.368Z" fill="#0067B1"/>
<path d="M176.945 32.4471L176.191 33.2114C175.851 32.8549 175.374 32.6543 174.879 32.6633C174.453 32.6521 174.041 32.817 173.738 33.12C173.13 33.7573 173.13 34.7622 173.738 35.4017C174.041 35.7048 174.453 35.8696 174.879 35.8585C175.374 35.8652 175.851 35.6669 176.191 35.3104L176.945 36.0746C176.414 36.6517 175.663 36.9704 174.879 36.9526C174.139 36.9704 173.422 36.6963 172.883 36.1883C172.366 35.6869 172.074 34.9984 172.074 34.2765C172.074 33.5568 172.366 32.8683 172.883 32.3669C173.42 31.8544 174.137 31.5759 174.879 31.5915C175.659 31.567 176.412 31.8789 176.945 32.4471Z" fill="#0067B1"/>
<path d="M178.256 34.2609C178.225 33.5367 178.497 32.8326 179.009 32.3201C179.535 31.8277 180.237 31.5648 180.959 31.5915C181.643 31.5648 182.307 31.8299 182.786 32.3201C183.265 32.7992 183.526 33.4565 183.504 34.1339C183.504 34.2832 183.504 34.4325 183.504 34.5573H179.5C179.515 34.9427 179.694 35.3059 179.988 35.5577C180.282 35.8073 180.667 35.9254 181.05 35.8808C181.576 35.8897 182.08 35.678 182.443 35.2993L183.185 36.0056C182.619 36.6027 181.826 36.9303 181.006 36.908C180.282 36.9348 179.573 36.6807 179.032 36.1994C178.519 35.7026 178.245 35.0074 178.279 34.2943L178.256 34.2609ZM182.26 33.7128C182.256 33.412 182.113 33.129 181.873 32.9485C181.621 32.7257 181.296 32.6076 180.959 32.6165C180.603 32.6076 180.253 32.719 179.968 32.9374C179.711 33.1201 179.542 33.4008 179.5 33.7128H182.26Z" fill="#0067B1"/>
<path d="M185.558 35.2414C185.881 35.6647 186.393 35.8987 186.926 35.8697C187.565 35.8697 187.84 35.6291 187.84 35.3216C187.828 35.1411 187.71 34.9851 187.543 34.9227C187.389 34.8425 187.229 34.7779 187.064 34.7289C186.915 34.7289 186.607 34.5907 186.436 34.5216C185.602 34.2253 185.157 33.8153 185.157 33.0956C185.134 32.6522 185.331 32.2266 185.683 31.9547C186.057 31.6762 186.516 31.5336 186.984 31.5448C187.626 31.5091 188.245 31.7854 188.648 32.2868L187.964 33.0065C187.717 32.7123 187.343 32.5541 186.959 32.5831C186.583 32.5831 186.344 32.7547 186.344 33.0287C186.347 33.1803 186.436 33.3162 186.572 33.3808L186.995 33.5635C187.142 33.5635 187.438 33.7017 187.646 33.7707C188.593 34.1005 189.025 34.5573 189.025 35.2748C189.025 36.2106 188.307 36.8835 186.904 36.8835C186.057 36.966 185.235 36.5716 184.769 35.8586L185.558 35.2414Z" fill="#0067B1"/>
<path d="M47.2063 22.5092C45.4504 22.5471 43.7481 21.8831 42.4847 20.662C41.2325 19.4143 40.5551 17.703 40.613 15.9383C40.5618 14.178 41.2525 12.4756 42.5181 11.2501C43.7592 10.0068 45.4527 9.32717 47.2063 9.36728C49.2428 9.32717 51.1858 10.2118 52.4893 11.7737L55.6155 9.09321C53.5789 6.77811 50.6912 5.38548 47.6118 5.23173C44.5324 5.08021 41.5221 6.18095 39.2672 8.28214C37.1348 10.2496 35.9494 13.0371 36.0162 15.9383C35.9449 18.8438 37.1303 21.6358 39.2672 23.6055C41.4218 25.6332 44.294 26.725 47.2531 26.6403C50.4817 26.647 53.55 25.2366 55.6489 22.7833L52.4893 20.1251C51.1747 21.6714 49.2362 22.5471 47.2063 22.5092ZM64.0002 10.8735C61.7943 10.8156 59.6575 11.6378 58.0576 13.1552C56.4845 14.6058 55.6066 16.6624 55.6489 18.8015C55.6021 20.9606 56.4778 23.0351 58.0576 24.5057C61.4155 27.5628 66.5493 27.5628 69.9095 24.5057C71.5115 23.0485 72.4028 20.9673 72.3516 18.8015C72.3961 16.6535 71.5048 14.5924 69.9095 13.1552C68.3185 11.6423 66.195 10.8223 64.0002 10.8735ZM66.7721 21.6425C65.2302 23.1465 62.7703 23.1465 61.2284 21.6425C60.4819 20.9027 60.0697 19.8889 60.0875 18.8349C60.0675 17.7899 60.4797 16.7827 61.2284 16.0519C61.957 15.3077 62.9575 14.8865 64.0002 14.8865C65.043 14.8865 66.0435 15.3077 66.7721 16.0519C67.5208 16.7827 67.933 17.7899 67.913 18.8349C67.9286 19.8866 67.5164 20.9005 66.7721 21.6425ZM77.9065 20.7757V5.56819H73.459V21.4709C73.459 24.9848 75.1569 26.754 78.5928 26.754H80.714V22.7833C78.3855 22.7833 77.9065 22.1215 77.9065 20.7868V20.7757ZM110.307 21.072V11.3749H105.857V19.8176C105.919 20.5863 105.652 21.3461 105.126 21.9121C104.598 22.4758 103.858 22.7922 103.085 22.7833C102.343 22.8256 101.619 22.5315 101.115 21.9834C100.612 21.4352 100.38 20.691 100.485 19.9535V11.3749H96.0463V20.5016C96.0463 24.4143 98.1564 26.7317 101.944 26.7317C104.124 26.7317 105.619 25.9897 106.372 24.528C106.624 25.1875 107.096 25.7379 107.706 26.0922C108.462 26.4821 109.309 26.6671 110.16 26.627C110.833 26.647 111.506 26.5668 112.156 26.3885V22.6919H111.414C110.603 22.6919 110.307 22.2708 110.307 21.0832V21.072ZM122.446 11.0451C120.164 11.0451 118.417 11.9676 117.974 13.3268V5.56819H113.524V26.3663H117.974V24.3921C118.417 25.7045 120.176 26.6737 122.446 26.6737C124.465 26.7139 126.401 25.8827 127.763 24.3921C129.18 22.8992 129.951 20.9072 129.906 18.8483C129.962 16.7983 129.198 14.8108 127.785 13.3268C126.423 11.8228 124.471 10.9916 122.446 11.0563V11.0451ZM124.362 21.5288C123.64 22.2396 122.66 22.6273 121.646 22.6006C120.61 22.6251 119.607 22.2396 118.852 21.5288C118.117 20.8314 117.702 19.8599 117.711 18.8483C117.696 17.8389 118.112 16.8741 118.852 16.19C119.592 15.448 120.599 15.0358 121.646 15.0492C122.671 15.0314 123.656 15.4458 124.362 16.19C125.107 16.8696 125.523 17.8389 125.503 18.8483C125.517 19.8621 125.102 20.8336 124.362 21.5288ZM139.523 17.4445C137.859 16.8384 136.604 16.6335 136.034 16.395C135.463 16.1544 135.405 15.9828 135.405 15.5951C135.405 15.0247 135.942 14.637 136.9 14.637C138.061 14.5924 139.195 15.0024 140.06 15.7778L142.181 12.8455C140.786 11.5376 138.926 10.8379 137.014 10.907C135.528 10.8557 134.068 11.3103 132.874 12.1971C131.769 13.0171 131.145 14.3339 131.207 15.711C131.207 17.7074 132.348 19.1335 134.63 19.8866C135.076 20.0337 135.771 20.2498 136.66 20.4571C137.286 20.5796 137.896 20.7801 138.474 21.0498C138.77 21.1701 138.968 21.4508 138.988 21.7672C138.988 22.5783 138.246 22.9883 136.707 22.9883C135.165 23.044 133.67 22.4468 132.589 21.3461L130.067 24.0957C131.718 25.9674 134.149 26.959 136.637 26.7762C141.054 26.7762 143.255 24.7798 143.255 21.7115C143.208 19.7151 141.987 18.2779 139.512 17.4445H139.523ZM91.2779 17.4445C89.6112 16.8384 88.3568 16.6335 87.7863 16.395C87.2159 16.1544 87.1602 15.9828 87.1602 15.5951C87.1602 15.0247 87.695 14.637 88.6531 14.637C89.8162 14.5902 90.9504 14.998 91.8149 15.7778L93.9362 12.8455C92.5436 11.5398 90.6875 10.8424 88.7801 10.907C87.2894 10.8579 85.8277 11.3125 84.6267 12.1971C83.5037 13.0215 82.8665 14.3518 82.9266 15.7444C82.9266 17.7409 84.0675 19.1669 86.3491 19.9201C86.8059 20.0671 87.49 20.2855 88.3813 20.4905C89.0096 20.6153 89.6224 20.8136 90.2062 21.0832C90.4981 21.2057 90.6919 21.4865 90.7075 21.8029C90.7075 22.6117 89.9655 23.0239 88.4258 23.0239C86.8861 23.0796 85.3932 22.4825 84.3193 21.3795L81.7524 24.1291C83.4012 25.9986 85.8277 26.9901 88.3122 26.8097C92.7263 26.8097 94.9411 24.8132 94.9411 21.745C94.9745 19.7151 93.7423 18.2779 91.2779 17.4445ZM146.952 10.0402C148.344 10.0335 149.467 8.89936 149.461 7.50673C149.454 6.1141 148.32 4.99109 146.927 4.99777C145.535 5.00446 144.412 6.13861 144.418 7.53124C144.425 8.91718 145.553 10.0402 146.938 10.0402H146.952ZM149.632 22.5092C149.461 22.3822 149.34 22.2017 149.289 21.9967C149.216 21.6982 149.182 21.3907 149.187 21.0832V11.3749H144.748V22.4402C144.748 25.27 146.061 26.6737 148.685 26.6737H150.738V22.6919H150.488C150.187 22.7165 149.886 22.6541 149.621 22.5092H149.632ZM167.714 21.0832V5.56819H163.265V13.2911C162.821 11.9787 161.063 11.0095 158.793 11.0095C156.767 10.9604 154.82 11.7938 153.454 13.2911C152.048 14.7818 151.286 16.7649 151.333 18.8126C151.292 20.8782 152.052 22.8769 153.454 24.3921C154.826 25.8805 156.769 26.7116 158.793 26.6737C161.143 26.6737 162.785 25.954 163.779 24.4946C164.022 25.1697 164.495 25.7379 165.114 26.1033C165.869 26.4933 166.716 26.6782 167.565 26.6403H169.561V22.6919H168.822C167.977 22.6919 167.714 22.2708 167.714 21.0832ZM162.375 21.5288C161.629 22.2441 160.626 22.6296 159.592 22.6006C158.579 22.6229 157.6 22.2374 156.876 21.5288C156.141 20.8314 155.727 19.8599 155.735 18.8483C155.72 17.8389 156.137 16.8741 156.876 16.19C157.585 15.4503 158.567 15.0358 159.592 15.0492C160.637 15.0291 161.645 15.4414 162.375 16.19C163.122 16.8696 163.539 17.8389 163.516 18.8483C163.523 19.8666 163.097 20.8425 162.34 21.5288H162.375ZM191.547 13.1998C188.209 10.0959 183.042 10.0959 179.704 13.1998C178.127 14.6504 177.247 16.7048 177.287 18.8483C177.242 21.0074 178.122 23.0819 179.704 24.5525C183.06 27.6074 188.189 27.6074 191.547 24.5525C193.151 23.0952 194.047 21.0141 193.998 18.8483C194.032 16.6936 193.122 14.6303 191.512 13.1998H191.547ZM188.385 21.6425C186.841 23.1487 184.377 23.1487 182.83 21.6425C182.086 20.9005 181.674 19.8866 181.69 18.8349C181.674 17.7921 182.086 16.785 182.83 16.0519C183.563 15.3099 184.564 14.891 185.609 14.891C186.652 14.891 187.652 15.3099 188.385 16.0519C189.132 16.785 189.544 17.7921 189.526 18.8349C189.537 19.8866 189.125 20.896 188.385 21.6425ZM172.654 10.0402C174.047 10.0335 175.17 8.89936 175.163 7.50673C175.159 6.1141 174.025 4.99109 172.632 4.99777C171.239 5.00446 170.114 6.13861 170.121 7.53124C170.121 8.1997 170.388 8.84142 170.865 9.3138C171.34 9.78395 171.984 10.0469 172.654 10.0402ZM175.335 22.5092C175.165 22.3822 175.043 22.2017 174.994 21.9967C174.914 21.6982 174.88 21.3907 174.889 21.0832V11.3749H170.453V22.4402C170.453 25.27 171.765 26.6737 174.388 26.6737H176.442V22.6919H176.19C175.894 22.7142 175.598 22.6518 175.335 22.5092Z" fill="#0067B1"/>
</svg>
